<mxfile host="app.diagrams.net" modified="2024-04-26T13:22:33.883Z" agent="Mozilla/5.0 (Windows NT 10.0; Win64; x64) AppleWebKit/537.36 (KHTML, like Gecko) Chrome/124.0.0.0 Safari/537.36 Edg/124.0.0.0" etag="sfCLr4mH2GMYWK5FCCXA" version="24.0.2" type="github">
  <diagram name="Page-1" id="7VMio2i-4e8c9Ot3hP9n">
    <mxGraphModel dx="2173" dy="2372" grid="1" gridSize="10" guides="1" tooltips="1" connect="1" arrows="1" fold="1" page="1" pageScale="1" pageWidth="850" pageHeight="1100" math="0" shadow="0">
      <root>
        <mxCell id="0" />
        <mxCell id="1" parent="0" />
        <mxCell id="-MINIWpLrqL6Es4k4kOJ-69" value="" style="rounded=0;whiteSpace=wrap;html=1;" vertex="1" parent="1">
          <mxGeometry x="-210" y="-40" width="1250" height="730" as="geometry" />
        </mxCell>
        <mxCell id="-MINIWpLrqL6Es4k4kOJ-61" value="&amp;nbsp; Philips Environment" style="rounded=0;whiteSpace=wrap;html=1;fillColor=none;dashed=1;dashPattern=8 8;strokeWidth=2;strokeColor=#2b00ff;align=left;verticalAlign=top;fontStyle=1;fontSize=16;" vertex="1" parent="1">
          <mxGeometry x="170" y="-10" width="850" height="670" as="geometry" />
        </mxCell>
        <mxCell id="-MINIWpLrqL6Es4k4kOJ-62" value="&amp;nbsp; Customer Environment" style="rounded=0;whiteSpace=wrap;html=1;fillColor=none;dashed=1;dashPattern=8 8;strokeWidth=3;strokeColor=#007a18;align=left;verticalAlign=top;fontStyle=1;fontSize=16;" vertex="1" parent="1">
          <mxGeometry x="-185.25" width="200" height="670" as="geometry" />
        </mxCell>
        <mxCell id="-MINIWpLrqL6Es4k4kOJ-8" value="&lt;b&gt;Data Stream&lt;/b&gt;" style="sketch=0;outlineConnect=0;fontColor=#232F3E;gradientColor=none;fillColor=#232F3D;strokeColor=none;dashed=0;verticalLabelPosition=bottom;verticalAlign=top;align=center;html=1;fontSize=12;fontStyle=0;aspect=fixed;pointerEvents=1;shape=mxgraph.aws4.data_stream;" vertex="1" parent="1">
          <mxGeometry x="535" y="180" width="70" height="70" as="geometry" />
        </mxCell>
        <mxCell id="-MINIWpLrqL6Es4k4kOJ-12" value="&lt;b&gt;Microservice&lt;/b&gt;" style="rounded=0;whiteSpace=wrap;html=1;fillColor=#b1ddf0;strokeColor=#10739e;dashed=1;dashPattern=8 8;" vertex="1" parent="1">
          <mxGeometry x="510" y="400" width="120" height="60" as="geometry" />
        </mxCell>
        <mxCell id="-MINIWpLrqL6Es4k4kOJ-13" value="&lt;b&gt;Microservice&lt;/b&gt;" style="rounded=0;whiteSpace=wrap;html=1;fillColor=#b1ddf0;strokeColor=#10739e;dashed=1;dashPattern=8 8;" vertex="1" parent="1">
          <mxGeometry x="700" y="280" width="120" height="60" as="geometry" />
        </mxCell>
        <mxCell id="-MINIWpLrqL6Es4k4kOJ-16" value="&lt;b&gt;Microservice&lt;/b&gt;" style="rounded=0;whiteSpace=wrap;html=1;fillColor=#b1ddf0;strokeColor=#10739e;dashed=1;dashPattern=8 8;" vertex="1" parent="1">
          <mxGeometry x="320" y="195" width="120" height="60" as="geometry" />
        </mxCell>
        <mxCell id="-MINIWpLrqL6Es4k4kOJ-17" value="&lt;b&gt;Microservice&lt;/b&gt;" style="rounded=0;whiteSpace=wrap;html=1;fillColor=#b1ddf0;strokeColor=#10739e;dashed=1;dashPattern=8 8;" vertex="1" parent="1">
          <mxGeometry x="700" y="90" width="120" height="60" as="geometry" />
        </mxCell>
        <mxCell id="-MINIWpLrqL6Es4k4kOJ-20" value="" style="endArrow=none;dashed=1;html=1;rounded=0;strokeWidth=3;fillColor=#bac8d3;strokeColor=#999999;entryX=1;entryY=0.5;entryDx=0;entryDy=0;" edge="1" parent="1" target="-MINIWpLrqL6Es4k4kOJ-16">
          <mxGeometry width="50" height="50" relative="1" as="geometry">
            <mxPoint x="510" y="225" as="sourcePoint" />
            <mxPoint x="570" y="170" as="targetPoint" />
            <Array as="points" />
          </mxGeometry>
        </mxCell>
        <mxCell id="-MINIWpLrqL6Es4k4kOJ-21" value="" style="endArrow=none;dashed=1;html=1;rounded=0;strokeWidth=3;fillColor=#bac8d3;strokeColor=#999999;exitX=0;exitY=0.5;exitDx=0;exitDy=0;" edge="1" parent="1" source="-MINIWpLrqL6Es4k4kOJ-17" target="-MINIWpLrqL6Es4k4kOJ-8">
          <mxGeometry width="50" height="50" relative="1" as="geometry">
            <mxPoint x="670" y="220" as="sourcePoint" />
            <mxPoint x="600" y="160" as="targetPoint" />
          </mxGeometry>
        </mxCell>
        <mxCell id="-MINIWpLrqL6Es4k4kOJ-22" value="" style="endArrow=none;dashed=1;html=1;rounded=0;strokeWidth=3;fillColor=#bac8d3;strokeColor=#999999;exitX=0;exitY=0.5;exitDx=0;exitDy=0;" edge="1" parent="1" source="-MINIWpLrqL6Es4k4kOJ-13" target="-MINIWpLrqL6Es4k4kOJ-8">
          <mxGeometry width="50" height="50" relative="1" as="geometry">
            <mxPoint x="690" y="350" as="sourcePoint" />
            <mxPoint x="620" y="280" as="targetPoint" />
          </mxGeometry>
        </mxCell>
        <mxCell id="-MINIWpLrqL6Es4k4kOJ-23" value="" style="endArrow=none;dashed=1;html=1;rounded=0;strokeWidth=3;fillColor=#bac8d3;strokeColor=#999999;entryX=0.5;entryY=0;entryDx=0;entryDy=0;" edge="1" parent="1" target="-MINIWpLrqL6Es4k4kOJ-12">
          <mxGeometry width="50" height="50" relative="1" as="geometry">
            <mxPoint x="570" y="280" as="sourcePoint" />
            <mxPoint x="570" y="390" as="targetPoint" />
          </mxGeometry>
        </mxCell>
        <mxCell id="-MINIWpLrqL6Es4k4kOJ-30" style="edgeStyle=orthogonalEdgeStyle;rounded=0;orthogonalLoop=1;jettySize=auto;html=1;entryX=0.5;entryY=0;entryDx=0;entryDy=0;" edge="1" parent="1" source="-MINIWpLrqL6Es4k4kOJ-25" target="-MINIWpLrqL6Es4k4kOJ-26">
          <mxGeometry relative="1" as="geometry" />
        </mxCell>
        <mxCell id="-MINIWpLrqL6Es4k4kOJ-43" value="&lt;b&gt;HTTPS&lt;/b&gt;" style="edgeLabel;html=1;align=center;verticalAlign=middle;resizable=0;points=[];" vertex="1" connectable="0" parent="-MINIWpLrqL6Es4k4kOJ-30">
          <mxGeometry x="-0.0894" relative="1" as="geometry">
            <mxPoint y="18" as="offset" />
          </mxGeometry>
        </mxCell>
        <mxCell id="-MINIWpLrqL6Es4k4kOJ-25" value="Virtual Acute Care" style="verticalLabelPosition=bottom;html=1;verticalAlign=top;align=center;strokeColor=none;fillColor=#00BEF2;shape=mxgraph.azure.computer;pointerEvents=1;fontStyle=1" vertex="1" parent="1">
          <mxGeometry x="-105" y="90" width="50" height="45" as="geometry" />
        </mxCell>
        <mxCell id="-MINIWpLrqL6Es4k4kOJ-26" value="&lt;b&gt;Edge Router&lt;/b&gt;" style="rounded=0;whiteSpace=wrap;html=1;fillColor=#fad7ac;strokeColor=#b46504;dashed=1;strokeWidth=2;rotation=-90;" vertex="1" parent="1">
          <mxGeometry x="40" y="210" width="380" height="30" as="geometry" />
        </mxCell>
        <mxCell id="-MINIWpLrqL6Es4k4kOJ-27" value="Integration Broker" style="rounded=0;whiteSpace=wrap;html=1;fillColor=#d0cee2;strokeColor=#56517e;dashed=1;strokeWidth=2;fontStyle=1" vertex="1" parent="1">
          <mxGeometry x="210" y="580" width="120" height="60" as="geometry" />
        </mxCell>
        <mxCell id="-MINIWpLrqL6Es4k4kOJ-28" value="" style="endArrow=none;dashed=1;html=1;rounded=0;strokeWidth=3;fillColor=#bac8d3;strokeColor=#999999;entryX=1;entryY=0.5;entryDx=0;entryDy=0;exitX=0.5;exitY=1;exitDx=0;exitDy=0;" edge="1" parent="1" source="-MINIWpLrqL6Es4k4kOJ-12" target="-MINIWpLrqL6Es4k4kOJ-27">
          <mxGeometry width="50" height="50" relative="1" as="geometry">
            <mxPoint x="410" y="570" as="sourcePoint" />
            <mxPoint x="330" y="530" as="targetPoint" />
            <Array as="points">
              <mxPoint x="570" y="610" />
            </Array>
          </mxGeometry>
        </mxCell>
        <mxCell id="-MINIWpLrqL6Es4k4kOJ-29" value="" style="endArrow=none;dashed=1;html=1;rounded=0;strokeWidth=3;fillColor=#bac8d3;strokeColor=#999999;entryX=0.5;entryY=1;entryDx=0;entryDy=0;exitX=0;exitY=0.5;exitDx=0;exitDy=0;" edge="1" parent="1" source="-MINIWpLrqL6Es4k4kOJ-16" target="-MINIWpLrqL6Es4k4kOJ-26">
          <mxGeometry width="50" height="50" relative="1" as="geometry">
            <mxPoint x="580" y="470" as="sourcePoint" />
            <mxPoint x="310" y="530" as="targetPoint" />
            <Array as="points" />
          </mxGeometry>
        </mxCell>
        <mxCell id="-MINIWpLrqL6Es4k4kOJ-31" value="&lt;b&gt;Microservice&lt;/b&gt;" style="rounded=0;whiteSpace=wrap;html=1;fillColor=#b1ddf0;strokeColor=#10739e;dashed=1;dashPattern=8 8;" vertex="1" parent="1">
          <mxGeometry x="700" y="185" width="120" height="60" as="geometry" />
        </mxCell>
        <mxCell id="-MINIWpLrqL6Es4k4kOJ-32" value="" style="endArrow=none;dashed=1;html=1;rounded=0;strokeWidth=3;fillColor=#bac8d3;strokeColor=#999999;exitX=0;exitY=0.5;exitDx=0;exitDy=0;" edge="1" parent="1" source="-MINIWpLrqL6Es4k4kOJ-31" target="-MINIWpLrqL6Es4k4kOJ-8">
          <mxGeometry width="50" height="50" relative="1" as="geometry">
            <mxPoint x="710" y="130" as="sourcePoint" />
            <mxPoint x="610" y="230" as="targetPoint" />
          </mxGeometry>
        </mxCell>
        <mxCell id="-MINIWpLrqL6Es4k4kOJ-36" style="edgeStyle=orthogonalEdgeStyle;rounded=0;orthogonalLoop=1;jettySize=auto;html=1;entryX=0.5;entryY=0;entryDx=0;entryDy=0;endArrow=classicThin;endFill=1;startArrow=classicThin;startFill=1;" edge="1" parent="1" source="-MINIWpLrqL6Es4k4kOJ-33" target="-MINIWpLrqL6Es4k4kOJ-35">
          <mxGeometry relative="1" as="geometry" />
        </mxCell>
        <mxCell id="-MINIWpLrqL6Es4k4kOJ-65" style="edgeStyle=orthogonalEdgeStyle;rounded=0;orthogonalLoop=1;jettySize=auto;html=1;entryX=0;entryY=0.5;entryDx=0;entryDy=0;startArrow=classicThin;startFill=1;" edge="1" parent="1" source="-MINIWpLrqL6Es4k4kOJ-33" target="-MINIWpLrqL6Es4k4kOJ-27">
          <mxGeometry relative="1" as="geometry">
            <Array as="points">
              <mxPoint x="80" y="290" />
              <mxPoint x="80" y="610" />
            </Array>
          </mxGeometry>
        </mxCell>
        <mxCell id="-MINIWpLrqL6Es4k4kOJ-33" value="EMR" style="rounded=0;whiteSpace=wrap;html=1;fillColor=#f8cecc;strokeColor=#b85450;dashed=1;strokeWidth=2;fontStyle=1" vertex="1" parent="1">
          <mxGeometry x="-140" y="260" width="120" height="60" as="geometry" />
        </mxCell>
        <mxCell id="-MINIWpLrqL6Es4k4kOJ-35" value="IBE" style="rounded=0;whiteSpace=wrap;html=1;fillColor=#dae8fc;strokeColor=#6c8ebf;dashed=1;strokeWidth=2;fontStyle=1" vertex="1" parent="1">
          <mxGeometry x="-140" y="370" width="120" height="60" as="geometry" />
        </mxCell>
        <mxCell id="-MINIWpLrqL6Es4k4kOJ-39" style="edgeStyle=orthogonalEdgeStyle;rounded=0;orthogonalLoop=1;jettySize=auto;html=1;entryX=0.5;entryY=1;entryDx=0;entryDy=0;startArrow=classicThin;startFill=1;" edge="1" parent="1" source="-MINIWpLrqL6Es4k4kOJ-38" target="-MINIWpLrqL6Es4k4kOJ-35">
          <mxGeometry relative="1" as="geometry" />
        </mxCell>
        <mxCell id="-MINIWpLrqL6Es4k4kOJ-38" value="Capsule/PIC iX" style="rounded=0;whiteSpace=wrap;html=1;fillColor=#dae8fc;strokeColor=#6c8ebf;dashed=1;strokeWidth=2;fontStyle=1" vertex="1" parent="1">
          <mxGeometry x="-132.5" y="480" width="105" height="50" as="geometry" />
        </mxCell>
        <mxCell id="-MINIWpLrqL6Es4k4kOJ-67" style="edgeStyle=orthogonalEdgeStyle;rounded=0;orthogonalLoop=1;jettySize=auto;html=1;entryX=0;entryY=0.5;entryDx=0;entryDy=0;" edge="1" parent="1" source="-MINIWpLrqL6Es4k4kOJ-40" target="-MINIWpLrqL6Es4k4kOJ-27">
          <mxGeometry relative="1" as="geometry" />
        </mxCell>
        <mxCell id="-MINIWpLrqL6Es4k4kOJ-68" value="HTTPS" style="edgeLabel;html=1;align=center;verticalAlign=middle;resizable=0;points=[];fontStyle=1" vertex="1" connectable="0" parent="-MINIWpLrqL6Es4k4kOJ-67">
          <mxGeometry x="0.4846" y="-4" relative="1" as="geometry">
            <mxPoint x="-12" y="-4" as="offset" />
          </mxGeometry>
        </mxCell>
        <mxCell id="-MINIWpLrqL6Es4k4kOJ-40" value="Caregility" style="shape=mxgraph.signs.tech.video_camera;html=1;pointerEvents=1;fillColor=#000000;strokeColor=none;verticalLabelPosition=bottom;verticalAlign=top;align=center;fontStyle=1" vertex="1" parent="1">
          <mxGeometry x="-115.5" y="600" width="60.5" height="20" as="geometry" />
        </mxCell>
        <mxCell id="-MINIWpLrqL6Es4k4kOJ-56" value="Database" style="shape=datastore;whiteSpace=wrap;html=1;fontStyle=1" vertex="1" parent="1">
          <mxGeometry x="940" y="175" width="60" height="80" as="geometry" />
        </mxCell>
        <mxCell id="-MINIWpLrqL6Es4k4kOJ-57" value="" style="endArrow=none;dashed=1;html=1;rounded=0;strokeWidth=3;fillColor=#bac8d3;strokeColor=#999999;exitX=0;exitY=0.5;exitDx=0;exitDy=0;entryX=1;entryY=0.5;entryDx=0;entryDy=0;" edge="1" parent="1" source="-MINIWpLrqL6Es4k4kOJ-56" target="-MINIWpLrqL6Es4k4kOJ-17">
          <mxGeometry width="50" height="50" relative="1" as="geometry">
            <mxPoint x="710" y="130" as="sourcePoint" />
            <mxPoint x="615" y="199" as="targetPoint" />
          </mxGeometry>
        </mxCell>
        <mxCell id="-MINIWpLrqL6Es4k4kOJ-58" value="" style="endArrow=none;dashed=1;html=1;rounded=0;strokeWidth=3;fillColor=#bac8d3;strokeColor=#999999;entryX=1;entryY=0.5;entryDx=0;entryDy=0;exitX=0;exitY=0.5;exitDx=0;exitDy=0;" edge="1" parent="1" source="-MINIWpLrqL6Es4k4kOJ-56" target="-MINIWpLrqL6Es4k4kOJ-31">
          <mxGeometry width="50" height="50" relative="1" as="geometry">
            <mxPoint x="940" y="260" as="sourcePoint" />
            <mxPoint x="830" y="130" as="targetPoint" />
          </mxGeometry>
        </mxCell>
        <mxCell id="-MINIWpLrqL6Es4k4kOJ-59" value="" style="endArrow=none;dashed=1;html=1;rounded=0;strokeWidth=3;fillColor=#bac8d3;strokeColor=#999999;exitX=0;exitY=0.5;exitDx=0;exitDy=0;entryX=1;entryY=0.5;entryDx=0;entryDy=0;" edge="1" parent="1" source="-MINIWpLrqL6Es4k4kOJ-56" target="-MINIWpLrqL6Es4k4kOJ-13">
          <mxGeometry width="50" height="50" relative="1" as="geometry">
            <mxPoint x="970" y="235" as="sourcePoint" />
            <mxPoint x="840" y="140" as="targetPoint" />
          </mxGeometry>
        </mxCell>
      </root>
    </mxGraphModel>
  </diagram>
</mxfile>
